<mxfile host="app.diagrams.net" modified="2022-07-14T11:42:14.675Z" agent="5.0 (Windows NT 10.0; Win64; x64) AppleWebKit/537.36 (KHTML, like Gecko) Chrome/103.0.0.0 Safari/537.36" etag="Cill9al3CkvAuWaiEHkJ" version="20.0.4" type="github">
  <diagram id="Q3oP1b0Paihbit8RjDi4" name="Страница 1">
    <mxGraphModel dx="2449" dy="2002" grid="1" gridSize="10" guides="1" tooltips="1" connect="1" arrows="1" fold="1" page="1" pageScale="1" pageWidth="827" pageHeight="1169" math="0" shadow="0">
      <root>
        <mxCell id="0" />
        <mxCell id="1" parent="0" />
        <mxCell id="ssWaTapdpuP5t6fjIvxC-1" value="Персональный компьютер" style="swimlane;fontStyle=1;align=center;verticalAlign=top;childLayout=stackLayout;horizontal=1;startSize=26;horizontalStack=0;resizeParent=1;resizeParentMax=0;resizeLast=0;collapsible=1;marginBottom=0;" parent="1" vertex="1">
          <mxGeometry x="245" y="-170" width="190" height="86" as="geometry" />
        </mxCell>
        <mxCell id="ssWaTapdpuP5t6fjIvxC-2" value="+ field: type" style="text;strokeColor=none;fillColor=none;align=left;verticalAlign=top;spacingLeft=4;spacingRight=4;overflow=hidden;rotatable=0;points=[[0,0.5],[1,0.5]];portConstraint=eastwest;" parent="ssWaTapdpuP5t6fjIvxC-1" vertex="1">
          <mxGeometry y="26" width="190" height="26" as="geometry" />
        </mxCell>
        <mxCell id="ssWaTapdpuP5t6fjIvxC-3" value="" style="line;strokeWidth=1;fillColor=none;align=left;verticalAlign=middle;spacingTop=-1;spacingLeft=3;spacingRight=3;rotatable=0;labelPosition=right;points=[];portConstraint=eastwest;" parent="ssWaTapdpuP5t6fjIvxC-1" vertex="1">
          <mxGeometry y="52" width="190" height="8" as="geometry" />
        </mxCell>
        <mxCell id="ssWaTapdpuP5t6fjIvxC-4" value="+ method(type): type" style="text;strokeColor=none;fillColor=none;align=left;verticalAlign=top;spacingLeft=4;spacingRight=4;overflow=hidden;rotatable=0;points=[[0,0.5],[1,0.5]];portConstraint=eastwest;" parent="ssWaTapdpuP5t6fjIvxC-1" vertex="1">
          <mxGeometry y="60" width="190" height="26" as="geometry" />
        </mxCell>
        <mxCell id="ssWaTapdpuP5t6fjIvxC-5" value="Системный блок" style="swimlane;fontStyle=1;align=center;verticalAlign=top;childLayout=stackLayout;horizontal=1;startSize=26;horizontalStack=0;resizeParent=1;resizeParentMax=0;resizeLast=0;collapsible=1;marginBottom=0;" parent="1" vertex="1">
          <mxGeometry x="-180" y="80" width="160" height="160" as="geometry" />
        </mxCell>
        <mxCell id="ssWaTapdpuP5t6fjIvxC-6" value="габариты: int&#xa;цвет: string&#xa;температура: int" style="text;strokeColor=none;fillColor=none;align=left;verticalAlign=top;spacingLeft=4;spacingRight=4;overflow=hidden;rotatable=0;points=[[0,0.5],[1,0.5]];portConstraint=eastwest;" parent="ssWaTapdpuP5t6fjIvxC-5" vertex="1">
          <mxGeometry y="26" width="160" height="54" as="geometry" />
        </mxCell>
        <mxCell id="ssWaTapdpuP5t6fjIvxC-7" value="" style="line;strokeWidth=1;fillColor=none;align=left;verticalAlign=middle;spacingTop=-1;spacingLeft=3;spacingRight=3;rotatable=0;labelPosition=right;points=[];portConstraint=eastwest;" parent="ssWaTapdpuP5t6fjIvxC-5" vertex="1">
          <mxGeometry y="80" width="160" height="8" as="geometry" />
        </mxCell>
        <mxCell id="ssWaTapdpuP5t6fjIvxC-8" value="шуметь()&#xa;греться()&#xa;светиться()&#xa;пищать()" style="text;strokeColor=none;fillColor=none;align=left;verticalAlign=top;spacingLeft=4;spacingRight=4;overflow=hidden;rotatable=0;points=[[0,0.5],[1,0.5]];portConstraint=eastwest;" parent="ssWaTapdpuP5t6fjIvxC-5" vertex="1">
          <mxGeometry y="88" width="160" height="72" as="geometry" />
        </mxCell>
        <mxCell id="ssWaTapdpuP5t6fjIvxC-14" value="Вебкамера" style="swimlane;fontStyle=1;align=center;verticalAlign=top;childLayout=stackLayout;horizontal=1;startSize=26;horizontalStack=0;resizeParent=1;resizeParentMax=0;resizeLast=0;collapsible=1;marginBottom=0;" parent="1" vertex="1">
          <mxGeometry x="245" y="360" width="160" height="120" as="geometry" />
        </mxCell>
        <mxCell id="ssWaTapdpuP5t6fjIvxC-15" value="максРазрешение(): int" style="text;strokeColor=none;fillColor=none;align=left;verticalAlign=top;spacingLeft=4;spacingRight=4;overflow=hidden;rotatable=0;points=[[0,0.5],[1,0.5]];portConstraint=eastwest;" parent="ssWaTapdpuP5t6fjIvxC-14" vertex="1">
          <mxGeometry y="26" width="160" height="26" as="geometry" />
        </mxCell>
        <mxCell id="ssWaTapdpuP5t6fjIvxC-16" value="" style="line;strokeWidth=1;fillColor=none;align=left;verticalAlign=middle;spacingTop=-1;spacingLeft=3;spacingRight=3;rotatable=0;labelPosition=right;points=[];portConstraint=eastwest;" parent="ssWaTapdpuP5t6fjIvxC-14" vertex="1">
          <mxGeometry y="52" width="160" height="8" as="geometry" />
        </mxCell>
        <mxCell id="ssWaTapdpuP5t6fjIvxC-17" value="сниматьВидео()&#xa;делатьФото()" style="text;strokeColor=none;fillColor=none;align=left;verticalAlign=top;spacingLeft=4;spacingRight=4;overflow=hidden;rotatable=0;points=[[0,0.5],[1,0.5]];portConstraint=eastwest;" parent="ssWaTapdpuP5t6fjIvxC-14" vertex="1">
          <mxGeometry y="60" width="160" height="60" as="geometry" />
        </mxCell>
        <mxCell id="ssWaTapdpuP5t6fjIvxC-22" value="Мышь" style="swimlane;fontStyle=1;align=center;verticalAlign=top;childLayout=stackLayout;horizontal=1;startSize=26;horizontalStack=0;resizeParent=1;resizeParentMax=0;resizeLast=0;collapsible=1;marginBottom=0;" parent="1" vertex="1">
          <mxGeometry x="430" y="220" width="160" height="110" as="geometry" />
        </mxCell>
        <mxCell id="ssWaTapdpuP5t6fjIvxC-23" value="количествоКлавиш(): int" style="text;strokeColor=none;fillColor=none;align=left;verticalAlign=top;spacingLeft=4;spacingRight=4;overflow=hidden;rotatable=0;points=[[0,0.5],[1,0.5]];portConstraint=eastwest;" parent="ssWaTapdpuP5t6fjIvxC-22" vertex="1">
          <mxGeometry y="26" width="160" height="34" as="geometry" />
        </mxCell>
        <mxCell id="ssWaTapdpuP5t6fjIvxC-24" value="" style="line;strokeWidth=1;fillColor=none;align=left;verticalAlign=middle;spacingTop=-1;spacingLeft=3;spacingRight=3;rotatable=0;labelPosition=right;points=[];portConstraint=eastwest;" parent="ssWaTapdpuP5t6fjIvxC-22" vertex="1">
          <mxGeometry y="60" width="160" height="8" as="geometry" />
        </mxCell>
        <mxCell id="ssWaTapdpuP5t6fjIvxC-25" value="щёлкать()&#xa;вращать колесо()" style="text;strokeColor=none;fillColor=none;align=left;verticalAlign=top;spacingLeft=4;spacingRight=4;overflow=hidden;rotatable=0;points=[[0,0.5],[1,0.5]];portConstraint=eastwest;" parent="ssWaTapdpuP5t6fjIvxC-22" vertex="1">
          <mxGeometry y="68" width="160" height="42" as="geometry" />
        </mxCell>
        <mxCell id="ssWaTapdpuP5t6fjIvxC-26" value="Монитор" style="swimlane;fontStyle=1;align=center;verticalAlign=top;childLayout=stackLayout;horizontal=1;startSize=26;horizontalStack=0;resizeParent=1;resizeParentMax=0;resizeLast=0;collapsible=1;marginBottom=0;" parent="1" vertex="1">
          <mxGeometry x="660" y="220" width="160" height="144" as="geometry" />
        </mxCell>
        <mxCell id="ssWaTapdpuP5t6fjIvxC-27" value="яркость(): int&#xa;диагональ(): int&#xa;разрешение(): int&#xa;углы обзора(): int&#xa;контрастность(): int" style="text;strokeColor=none;fillColor=none;align=left;verticalAlign=top;spacingLeft=4;spacingRight=4;overflow=hidden;rotatable=0;points=[[0,0.5],[1,0.5]];portConstraint=eastwest;" parent="ssWaTapdpuP5t6fjIvxC-26" vertex="1">
          <mxGeometry y="26" width="160" height="84" as="geometry" />
        </mxCell>
        <mxCell id="ssWaTapdpuP5t6fjIvxC-28" value="" style="line;strokeWidth=1;fillColor=none;align=left;verticalAlign=middle;spacingTop=-1;spacingLeft=3;spacingRight=3;rotatable=0;labelPosition=right;points=[];portConstraint=eastwest;" parent="ssWaTapdpuP5t6fjIvxC-26" vertex="1">
          <mxGeometry y="110" width="160" height="8" as="geometry" />
        </mxCell>
        <mxCell id="ssWaTapdpuP5t6fjIvxC-29" value="отображать()" style="text;strokeColor=none;fillColor=none;align=left;verticalAlign=top;spacingLeft=4;spacingRight=4;overflow=hidden;rotatable=0;points=[[0,0.5],[1,0.5]];portConstraint=eastwest;" parent="ssWaTapdpuP5t6fjIvxC-26" vertex="1">
          <mxGeometry y="118" width="160" height="26" as="geometry" />
        </mxCell>
        <mxCell id="ssWaTapdpuP5t6fjIvxC-34" value="Колонки" style="swimlane;fontStyle=1;align=center;verticalAlign=top;childLayout=stackLayout;horizontal=1;startSize=26;horizontalStack=0;resizeParent=1;resizeParentMax=0;resizeLast=0;collapsible=1;marginBottom=0;" parent="1" vertex="1">
          <mxGeometry x="900" y="220" width="160" height="104" as="geometry" />
        </mxCell>
        <mxCell id="ssWaTapdpuP5t6fjIvxC-35" value="мощность(): int&#xa;громкость(): int" style="text;strokeColor=none;fillColor=none;align=left;verticalAlign=top;spacingLeft=4;spacingRight=4;overflow=hidden;rotatable=0;points=[[0,0.5],[1,0.5]];portConstraint=eastwest;" parent="ssWaTapdpuP5t6fjIvxC-34" vertex="1">
          <mxGeometry y="26" width="160" height="44" as="geometry" />
        </mxCell>
        <mxCell id="ssWaTapdpuP5t6fjIvxC-36" value="" style="line;strokeWidth=1;fillColor=none;align=left;verticalAlign=middle;spacingTop=-1;spacingLeft=3;spacingRight=3;rotatable=0;labelPosition=right;points=[];portConstraint=eastwest;" parent="ssWaTapdpuP5t6fjIvxC-34" vertex="1">
          <mxGeometry y="70" width="160" height="8" as="geometry" />
        </mxCell>
        <mxCell id="ssWaTapdpuP5t6fjIvxC-37" value="звучать()" style="text;strokeColor=none;fillColor=none;align=left;verticalAlign=top;spacingLeft=4;spacingRight=4;overflow=hidden;rotatable=0;points=[[0,0.5],[1,0.5]];portConstraint=eastwest;" parent="ssWaTapdpuP5t6fjIvxC-34" vertex="1">
          <mxGeometry y="78" width="160" height="26" as="geometry" />
        </mxCell>
        <mxCell id="ssWaTapdpuP5t6fjIvxC-38" value="Средство ввода" style="swimlane;fontStyle=1;align=center;verticalAlign=top;childLayout=stackLayout;horizontal=1;startSize=26;horizontalStack=0;resizeParent=1;resizeParentMax=0;resizeLast=0;collapsible=1;marginBottom=0;" parent="1" vertex="1">
          <mxGeometry x="245" y="80" width="160" height="104" as="geometry" />
        </mxCell>
        <mxCell id="ssWaTapdpuP5t6fjIvxC-39" value="габариты: int&#xa;цвет: string&#xa;" style="text;strokeColor=none;fillColor=none;align=left;verticalAlign=top;spacingLeft=4;spacingRight=4;overflow=hidden;rotatable=0;points=[[0,0.5],[1,0.5]];portConstraint=eastwest;" parent="ssWaTapdpuP5t6fjIvxC-38" vertex="1">
          <mxGeometry y="26" width="160" height="44" as="geometry" />
        </mxCell>
        <mxCell id="ssWaTapdpuP5t6fjIvxC-40" value="" style="line;strokeWidth=1;fillColor=none;align=left;verticalAlign=middle;spacingTop=-1;spacingLeft=3;spacingRight=3;rotatable=0;labelPosition=right;points=[];portConstraint=eastwest;" parent="ssWaTapdpuP5t6fjIvxC-38" vertex="1">
          <mxGeometry y="70" width="160" height="8" as="geometry" />
        </mxCell>
        <mxCell id="ssWaTapdpuP5t6fjIvxC-41" value="+ method(type): type" style="text;strokeColor=none;fillColor=none;align=left;verticalAlign=top;spacingLeft=4;spacingRight=4;overflow=hidden;rotatable=0;points=[[0,0.5],[1,0.5]];portConstraint=eastwest;" parent="ssWaTapdpuP5t6fjIvxC-38" vertex="1">
          <mxGeometry y="78" width="160" height="26" as="geometry" />
        </mxCell>
        <mxCell id="ssWaTapdpuP5t6fjIvxC-42" value="Средство вывода" style="swimlane;fontStyle=1;align=center;verticalAlign=top;childLayout=stackLayout;horizontal=1;startSize=26;horizontalStack=0;resizeParent=1;resizeParentMax=0;resizeLast=0;collapsible=1;marginBottom=0;" parent="1" vertex="1">
          <mxGeometry x="780" y="80" width="160" height="104" as="geometry" />
        </mxCell>
        <mxCell id="ssWaTapdpuP5t6fjIvxC-43" value="габариты: int&#xa;цвет: string&#xa;" style="text;strokeColor=none;fillColor=none;align=left;verticalAlign=top;spacingLeft=4;spacingRight=4;overflow=hidden;rotatable=0;points=[[0,0.5],[1,0.5]];portConstraint=eastwest;" parent="ssWaTapdpuP5t6fjIvxC-42" vertex="1">
          <mxGeometry y="26" width="160" height="44" as="geometry" />
        </mxCell>
        <mxCell id="ssWaTapdpuP5t6fjIvxC-44" value="" style="line;strokeWidth=1;fillColor=none;align=left;verticalAlign=middle;spacingTop=-1;spacingLeft=3;spacingRight=3;rotatable=0;labelPosition=right;points=[];portConstraint=eastwest;" parent="ssWaTapdpuP5t6fjIvxC-42" vertex="1">
          <mxGeometry y="70" width="160" height="8" as="geometry" />
        </mxCell>
        <mxCell id="ssWaTapdpuP5t6fjIvxC-45" value="+ method(type): type" style="text;strokeColor=none;fillColor=none;align=left;verticalAlign=top;spacingLeft=4;spacingRight=4;overflow=hidden;rotatable=0;points=[[0,0.5],[1,0.5]];portConstraint=eastwest;" parent="ssWaTapdpuP5t6fjIvxC-42" vertex="1">
          <mxGeometry y="78" width="160" height="26" as="geometry" />
        </mxCell>
        <mxCell id="ssWaTapdpuP5t6fjIvxC-46" value="Микрофон" style="swimlane;fontStyle=1;align=center;verticalAlign=top;childLayout=stackLayout;horizontal=1;startSize=26;horizontalStack=0;resizeParent=1;resizeParentMax=0;resizeLast=0;collapsible=1;marginBottom=0;" parent="1" vertex="1">
          <mxGeometry x="70" y="360" width="160" height="104" as="geometry" />
        </mxCell>
        <mxCell id="ssWaTapdpuP5t6fjIvxC-47" value="чувствительность(): int&#xa;шумоподавление(): bool" style="text;strokeColor=none;fillColor=none;align=left;verticalAlign=top;spacingLeft=4;spacingRight=4;overflow=hidden;rotatable=0;points=[[0,0.5],[1,0.5]];portConstraint=eastwest;" parent="ssWaTapdpuP5t6fjIvxC-46" vertex="1">
          <mxGeometry y="26" width="160" height="44" as="geometry" />
        </mxCell>
        <mxCell id="ssWaTapdpuP5t6fjIvxC-48" value="" style="line;strokeWidth=1;fillColor=none;align=left;verticalAlign=middle;spacingTop=-1;spacingLeft=3;spacingRight=3;rotatable=0;labelPosition=right;points=[];portConstraint=eastwest;" parent="ssWaTapdpuP5t6fjIvxC-46" vertex="1">
          <mxGeometry y="70" width="160" height="8" as="geometry" />
        </mxCell>
        <mxCell id="ssWaTapdpuP5t6fjIvxC-49" value="записыватьЗвук()" style="text;strokeColor=none;fillColor=none;align=left;verticalAlign=top;spacingLeft=4;spacingRight=4;overflow=hidden;rotatable=0;points=[[0,0.5],[1,0.5]];portConstraint=eastwest;" parent="ssWaTapdpuP5t6fjIvxC-46" vertex="1">
          <mxGeometry y="78" width="160" height="26" as="geometry" />
        </mxCell>
        <mxCell id="ssWaTapdpuP5t6fjIvxC-54" value="Принтер" style="swimlane;fontStyle=1;align=center;verticalAlign=top;childLayout=stackLayout;horizontal=1;startSize=26;horizontalStack=0;resizeParent=1;resizeParentMax=0;resizeLast=0;collapsible=1;marginBottom=0;" parent="1" vertex="1">
          <mxGeometry x="780" y="410" width="160" height="94" as="geometry" />
        </mxCell>
        <mxCell id="ssWaTapdpuP5t6fjIvxC-55" value="цветной(): bool&#xa;махФорматБумаги(): string" style="text;strokeColor=none;fillColor=none;align=left;verticalAlign=top;spacingLeft=4;spacingRight=4;overflow=hidden;rotatable=0;points=[[0,0.5],[1,0.5]];portConstraint=eastwest;" parent="ssWaTapdpuP5t6fjIvxC-54" vertex="1">
          <mxGeometry y="26" width="160" height="34" as="geometry" />
        </mxCell>
        <mxCell id="ssWaTapdpuP5t6fjIvxC-56" value="" style="line;strokeWidth=1;fillColor=none;align=left;verticalAlign=middle;spacingTop=-1;spacingLeft=3;spacingRight=3;rotatable=0;labelPosition=right;points=[];portConstraint=eastwest;" parent="ssWaTapdpuP5t6fjIvxC-54" vertex="1">
          <mxGeometry y="60" width="160" height="8" as="geometry" />
        </mxCell>
        <mxCell id="ssWaTapdpuP5t6fjIvxC-57" value="печатать()" style="text;strokeColor=none;fillColor=none;align=left;verticalAlign=top;spacingLeft=4;spacingRight=4;overflow=hidden;rotatable=0;points=[[0,0.5],[1,0.5]];portConstraint=eastwest;" parent="ssWaTapdpuP5t6fjIvxC-54" vertex="1">
          <mxGeometry y="68" width="160" height="26" as="geometry" />
        </mxCell>
        <mxCell id="ssWaTapdpuP5t6fjIvxC-58" value="Сканер" style="swimlane;fontStyle=1;align=center;verticalAlign=top;childLayout=stackLayout;horizontal=1;startSize=26;horizontalStack=0;resizeParent=1;resizeParentMax=0;resizeLast=0;collapsible=1;marginBottom=0;" parent="1" vertex="1">
          <mxGeometry x="420" y="360" width="180" height="104" as="geometry" />
        </mxCell>
        <mxCell id="ssWaTapdpuP5t6fjIvxC-59" value="максФорматБумаги(): string&#xa;максРазрешение(): int" style="text;strokeColor=none;fillColor=none;align=left;verticalAlign=top;spacingLeft=4;spacingRight=4;overflow=hidden;rotatable=0;points=[[0,0.5],[1,0.5]];portConstraint=eastwest;" parent="ssWaTapdpuP5t6fjIvxC-58" vertex="1">
          <mxGeometry y="26" width="180" height="44" as="geometry" />
        </mxCell>
        <mxCell id="ssWaTapdpuP5t6fjIvxC-60" value="" style="line;strokeWidth=1;fillColor=none;align=left;verticalAlign=middle;spacingTop=-1;spacingLeft=3;spacingRight=3;rotatable=0;labelPosition=right;points=[];portConstraint=eastwest;" parent="ssWaTapdpuP5t6fjIvxC-58" vertex="1">
          <mxGeometry y="70" width="180" height="8" as="geometry" />
        </mxCell>
        <mxCell id="ssWaTapdpuP5t6fjIvxC-61" value="сканировать()" style="text;strokeColor=none;fillColor=none;align=left;verticalAlign=top;spacingLeft=4;spacingRight=4;overflow=hidden;rotatable=0;points=[[0,0.5],[1,0.5]];portConstraint=eastwest;" parent="ssWaTapdpuP5t6fjIvxC-58" vertex="1">
          <mxGeometry y="78" width="180" height="26" as="geometry" />
        </mxCell>
        <mxCell id="ssWaTapdpuP5t6fjIvxC-62" value="Клавиатура" style="swimlane;fontStyle=1;align=center;verticalAlign=top;childLayout=stackLayout;horizontal=1;startSize=26;horizontalStack=0;resizeParent=1;resizeParentMax=0;resizeLast=0;collapsible=1;marginBottom=0;" parent="1" vertex="1">
          <mxGeometry x="50" y="220" width="160" height="128" as="geometry" />
        </mxCell>
        <mxCell id="ssWaTapdpuP5t6fjIvxC-68" value="" style="endArrow=diamondThin;endFill=1;endSize=24;html=1;rounded=0;entryX=0.347;entryY=1.005;entryDx=0;entryDy=0;entryPerimeter=0;exitX=1;exitY=0.5;exitDx=0;exitDy=0;" parent="ssWaTapdpuP5t6fjIvxC-62" source="ssWaTapdpuP5t6fjIvxC-63" edge="1">
          <mxGeometry width="160" relative="1" as="geometry">
            <mxPoint x="120" y="140.93" as="sourcePoint" />
            <mxPoint x="200.5200000000002" y="-34.939999999999884" as="targetPoint" />
          </mxGeometry>
        </mxCell>
        <mxCell id="ssWaTapdpuP5t6fjIvxC-63" value="количествоКлавиш(): int&#xa;полноразмерность(): bool&#xa;раскладки(): string" style="text;strokeColor=none;fillColor=none;align=left;verticalAlign=top;spacingLeft=4;spacingRight=4;overflow=hidden;rotatable=0;points=[[0,0.5],[1,0.5]];portConstraint=eastwest;" parent="ssWaTapdpuP5t6fjIvxC-62" vertex="1">
          <mxGeometry y="26" width="160" height="54" as="geometry" />
        </mxCell>
        <mxCell id="ssWaTapdpuP5t6fjIvxC-64" value="" style="line;strokeWidth=1;fillColor=none;align=left;verticalAlign=middle;spacingTop=-1;spacingLeft=3;spacingRight=3;rotatable=0;labelPosition=right;points=[];portConstraint=eastwest;" parent="ssWaTapdpuP5t6fjIvxC-62" vertex="1">
          <mxGeometry y="80" width="160" height="8" as="geometry" />
        </mxCell>
        <mxCell id="ssWaTapdpuP5t6fjIvxC-65" value="клацать()&#xa;светиться()" style="text;strokeColor=none;fillColor=none;align=left;verticalAlign=top;spacingLeft=4;spacingRight=4;overflow=hidden;rotatable=0;points=[[0,0.5],[1,0.5]];portConstraint=eastwest;" parent="ssWaTapdpuP5t6fjIvxC-62" vertex="1">
          <mxGeometry y="88" width="160" height="40" as="geometry" />
        </mxCell>
        <mxCell id="ssWaTapdpuP5t6fjIvxC-66" value="" style="endArrow=diamondThin;endFill=1;endSize=24;html=1;rounded=0;entryX=0.218;entryY=1.021;entryDx=0;entryDy=0;entryPerimeter=0;" parent="1" target="ssWaTapdpuP5t6fjIvxC-41" edge="1">
          <mxGeometry width="160" relative="1" as="geometry">
            <mxPoint x="220" y="360" as="sourcePoint" />
            <mxPoint x="260" y="250" as="targetPoint" />
          </mxGeometry>
        </mxCell>
        <mxCell id="ssWaTapdpuP5t6fjIvxC-67" value="" style="endArrow=diamondThin;endFill=1;endSize=24;html=1;rounded=0;exitX=0.471;exitY=0.009;exitDx=0;exitDy=0;entryX=0.466;entryY=1.011;entryDx=0;entryDy=0;entryPerimeter=0;exitPerimeter=0;" parent="1" source="ssWaTapdpuP5t6fjIvxC-14" target="ssWaTapdpuP5t6fjIvxC-41" edge="1">
          <mxGeometry width="160" relative="1" as="geometry">
            <mxPoint x="229.99999999999955" y="370" as="sourcePoint" />
            <mxPoint x="320" y="190" as="targetPoint" />
          </mxGeometry>
        </mxCell>
        <mxCell id="ssWaTapdpuP5t6fjIvxC-69" value="" style="endArrow=diamondThin;endFill=1;endSize=24;html=1;rounded=0;exitX=0.079;exitY=-0.007;exitDx=0;exitDy=0;entryX=0.719;entryY=1.035;entryDx=0;entryDy=0;entryPerimeter=0;exitPerimeter=0;" parent="1" source="ssWaTapdpuP5t6fjIvxC-58" target="ssWaTapdpuP5t6fjIvxC-41" edge="1">
          <mxGeometry width="160" relative="1" as="geometry">
            <mxPoint x="350.8000000000001" y="360.3999999999999" as="sourcePoint" />
            <mxPoint x="350.00000000000017" y="183.60600000000005" as="targetPoint" />
          </mxGeometry>
        </mxCell>
        <mxCell id="ssWaTapdpuP5t6fjIvxC-70" value="" style="endArrow=diamondThin;endFill=1;endSize=24;html=1;rounded=0;entryX=0.466;entryY=1.011;entryDx=0;entryDy=0;entryPerimeter=0;" parent="1" edge="1">
          <mxGeometry width="160" relative="1" as="geometry">
            <mxPoint x="430" y="270" as="sourcePoint" />
            <mxPoint x="390.0000000000002" y="184.33599999999998" as="targetPoint" />
          </mxGeometry>
        </mxCell>
        <mxCell id="ssWaTapdpuP5t6fjIvxC-71" value="" style="endArrow=diamondThin;endFill=1;endSize=24;html=1;rounded=0;exitX=0.471;exitY=0.009;exitDx=0;exitDy=0;entryX=0.496;entryY=1.03;entryDx=0;entryDy=0;entryPerimeter=0;exitPerimeter=0;" parent="1" target="ssWaTapdpuP5t6fjIvxC-45" edge="1">
          <mxGeometry width="160" relative="1" as="geometry">
            <mxPoint x="860.3999999999996" y="409.99999999999994" as="sourcePoint" />
            <mxPoint x="859.5999999999999" y="233.20600000000007" as="targetPoint" />
          </mxGeometry>
        </mxCell>
        <mxCell id="ssWaTapdpuP5t6fjIvxC-72" value="" style="endArrow=diamondThin;endFill=1;endSize=24;html=1;rounded=0;entryX=0.153;entryY=1.027;entryDx=0;entryDy=0;entryPerimeter=0;exitX=0.774;exitY=0.003;exitDx=0;exitDy=0;exitPerimeter=0;" parent="1" source="ssWaTapdpuP5t6fjIvxC-26" target="ssWaTapdpuP5t6fjIvxC-45" edge="1">
          <mxGeometry width="160" relative="1" as="geometry">
            <mxPoint x="739.48" y="271.94" as="sourcePoint" />
            <mxPoint x="780" y="184.00000000000017" as="targetPoint" />
          </mxGeometry>
        </mxCell>
        <mxCell id="ssWaTapdpuP5t6fjIvxC-73" value="" style="endArrow=diamondThin;endFill=1;endSize=24;html=1;rounded=0;entryX=0.886;entryY=0.993;entryDx=0;entryDy=0;entryPerimeter=0;exitX=0.316;exitY=0.002;exitDx=0;exitDy=0;exitPerimeter=0;" parent="1" source="ssWaTapdpuP5t6fjIvxC-34" target="ssWaTapdpuP5t6fjIvxC-45" edge="1">
          <mxGeometry width="160" relative="1" as="geometry">
            <mxPoint x="980" y="269.66" as="sourcePoint" />
            <mxPoint x="940" y="183.996" as="targetPoint" />
          </mxGeometry>
        </mxCell>
        <mxCell id="ssWaTapdpuP5t6fjIvxC-74" value="" style="endArrow=diamondThin;endFill=1;endSize=24;html=1;rounded=0;entryX=0.134;entryY=1.002;entryDx=0;entryDy=0;entryPerimeter=0;exitX=1;exitY=0.5;exitDx=0;exitDy=0;" parent="1" target="ssWaTapdpuP5t6fjIvxC-4" edge="1">
          <mxGeometry width="160" relative="1" as="geometry">
            <mxPoint x="-60.51999999999998" y="80" as="sourcePoint" />
            <mxPoint x="-19.999999999999545" y="-7.940000000000055" as="targetPoint" />
            <Array as="points" />
          </mxGeometry>
        </mxCell>
        <mxCell id="ssWaTapdpuP5t6fjIvxC-75" value="" style="endArrow=diamondThin;endFill=1;endSize=24;html=1;rounded=0;entryX=0.466;entryY=1.011;entryDx=0;entryDy=0;entryPerimeter=0;exitX=0.25;exitY=0;exitDx=0;exitDy=0;" parent="1" source="ssWaTapdpuP5t6fjIvxC-42" edge="1">
          <mxGeometry width="160" relative="1" as="geometry">
            <mxPoint x="445" y="1.660000000000025" as="sourcePoint" />
            <mxPoint x="405" y="-84.00400000000019" as="targetPoint" />
          </mxGeometry>
        </mxCell>
        <mxCell id="ssWaTapdpuP5t6fjIvxC-76" value="" style="endArrow=diamondThin;endFill=1;endSize=24;html=1;rounded=0;exitX=0.596;exitY=-0.001;exitDx=0;exitDy=0;entryX=0.466;entryY=1.011;entryDx=0;entryDy=0;entryPerimeter=0;exitPerimeter=0;" parent="1" source="ssWaTapdpuP5t6fjIvxC-38" edge="1">
          <mxGeometry width="160" relative="1" as="geometry">
            <mxPoint x="340.35000000000014" y="92.79000000000036" as="sourcePoint" />
            <mxPoint x="339.54999999999995" y="-84.00399999999996" as="targetPoint" />
          </mxGeometry>
        </mxCell>
      </root>
    </mxGraphModel>
  </diagram>
</mxfile>
